<?xml version="1.0" standalone="no"?>
<!DOCTYPE svg PUBLIC "-//W3C//DTD SVG 20010904//EN"
 "http://www.w3.org/TR/2001/REC-SVG-20010904/DTD/svg10.dtd">
<svg version="1.0" xmlns="http://www.w3.org/2000/svg"
 width="395.000000pt" height="400.000000pt" viewBox="0 0 395.000000 400.000000"
 preserveAspectRatio="xMidYMid meet">
<metadata>
Created by potrace 1.14, written by Peter Selinger 2001-2017
</metadata>
<g transform="translate(0.000000,400.000000) scale(0.100000,-0.100000)"
fill="#000000" stroke="none">
<path d="M1690 3968 c-17 -18 -172 -231 -344 -473 l-314 -440 46 -50 c80 -88
515 -525 523 -525 4 0 73 63 153 141 114 110 148 149 155 178 5 20 12 272 15
561 5 414 3 530 -7 550 -9 19 -35 33 -102 57 -50 18 -91 33 -92 33 -1 0 -16
-15 -33 -32z"/>
<path d="M2145 3965 c-78 -21 -103 -33 -114 -52 -6 -12 -6 -217 -1 -576 7
-472 11 -561 23 -581 15 -23 281 -279 295 -284 6 -2 256 246 495 494 l79 81
-319 443 c-175 244 -329 451 -343 461 -37 26 -60 29 -115 14z"/>
<path d="M764 2823 c-105 -76 -268 -194 -364 -263 -95 -69 -218 -157 -274
-195 -124 -87 -130 -98 -96 -197 40 -119 -21 -108 624 -108 421 1 566 4 582
13 25 14 274 300 274 313 -1 5 -125 136 -278 292 l-277 282 -191 -137z"/>
<path d="M2701 2673 l-283 -278 141 -161 c97 -111 150 -165 172 -173 22 -8
207 -11 585 -11 l554 0 14 23 c27 41 61 176 50 195 -9 15 -275 210 -779 574
-77 56 -147 103 -155 105 -9 2 -129 -108 -299 -274z"/>
<path d="M1900 2560 c-127 -16 -231 -69 -326 -164 -176 -177 -214 -435 -97
-658 90 -171 265 -283 463 -295 261 -16 501 156 576 412 23 78 23 220 0 300
-77 266 -343 441 -616 405z m195 -84 c122 -32 249 -132 307 -242 98 -184 68
-410 -74 -560 -100 -106 -211 -154 -352 -154 -246 0 -446 168 -488 408 -39
229 113 470 342 543 67 22 195 24 265 5z"/>
<path d="M1874 2280 c-202 -80 -261 -321 -119 -478 117 -130 327 -128 444 4
97 111 96 281 -4 392 -83 92 -212 125 -321 82z m172 -129 c55 -25 87 -71 92
-136 9 -104 -59 -178 -163 -178 -105 0 -172 74 -163 180 6 66 29 100 88 131
53 27 92 28 146 3z"/>
<path d="M73 1926 c-29 -37 -69 -174 -57 -194 6 -9 83 -69 171 -132 150 -108
340 -245 635 -458 70 -51 132 -92 137 -92 12 0 545 548 549 565 2 7 -43 66
-99 131 -56 65 -111 131 -122 146 -43 58 -46 58 -646 58 l-550 0 -18 -24z"/>
<path d="M3100 1940 c-223 -3 -382 -9 -391 -15 -9 -5 -65 -66 -124 -135 -60
-69 -117 -135 -128 -147 l-20 -22 116 -123 c64 -68 190 -199 279 -291 l163
-168 340 246 c187 135 360 261 385 279 25 18 80 59 123 90 43 32 82 68 87 81
12 31 -31 184 -56 202 -19 14 -19 14 -774 3z"/>
<path d="M1311 1244 l-282 -286 17 -26 c65 -98 604 -843 630 -869 25 -26 40
-33 70 -33 60 0 154 30 170 55 12 18 13 107 6 584 l-7 564 -154 148 c-84 82
-157 149 -161 149 -4 0 -134 -129 -289 -286z"/>
<path d="M2218 1405 c-167 -160 -166 -159 -177 -203 -6 -21 -11 -276 -12 -576
l-3 -539 23 -18 c31 -25 158 -62 187 -55 15 4 48 41 91 103 38 53 186 261 330
462 l261 366 -31 35 c-16 19 -144 151 -284 294 l-253 258 -132 -127z"/>
</g>
</svg>
